<svg xmlns="http://www.w3.org/2000/svg" viewBox="0 0 301.18 30.22"><defs><style>.cls-1{fill:#3f3e3e;}</style></defs><title>arrow</title><g id="Layer_2" data-name="Layer 2"><g id="Object"><path class="cls-1" d="M34.14,30H.69L15.42,15.3.69.57H34.14L48.88,15.3Zm-31-1H33.73L47.46,15.3,33.73,1.57H3.1L16.83,15.3Z"/><path class="cls-1" d="M34.14,30H.69L15.42,15.3.69.57H34.14L48.88,15.3Zm-31-1H33.73L47.46,15.3,33.73,1.57H3.1L16.83,15.3Z"/><polygon class="cls-1" points="3.06 28.99 3.36 28.75 3.36 28.58 3.06 28.99"/><path class="cls-1" d="M4.67,28l.43-.5c-.53,0-.09-.28-1,.26-.21.29-.69.95-.51,1A4.26,4.26,0,0,1,4.23,28c0,.19-.34.48-.38.71.52-.36.21-.34.73-.78Z"/><path class="cls-1" d="M5,27.22c0,.09,0,.18,0,.2S5.18,27.05,5,27.22Z"/><path class="cls-1" d="M5.22,26.91c.3-.29.09.1.14.08l.16-.5Z"/><path class="cls-1" d="M6.45,25.7l.12-.16C6.5,25.56,6.48,25.62,6.45,25.7Z"/><path class="cls-1" d="M7,25.07c-.17.07-.29.25-.46.47h0c.22-.12.18.16-.12.4s-.35.17-.52.5l.44-.25A3.36,3.36,0,0,0,7,25.07Z"/><path class="cls-1" d="M6.45,25.7a1.1,1.1,0,0,1-.15.16A.32.32,0,0,0,6.45,25.7Z"/><polygon class="cls-1" points="5.83 26.3 5.7 26.47 5.79 26.49 5.83 26.3"/><path class="cls-1" d="M8,24.06c.09.24-.74.7-.69.91.39-.41.83-.6.83-.43l.39-.48C8.64,23.85,8.33,23.91,8,24.06Z"/><path class="cls-1" d="M9.3,23.62a.83.83,0,0,1,.07-.13A.28.28,0,0,0,9.3,23.62Z"/><path class="cls-1" d="M11.23,21.12l-.85,1.19c0-.15-.05-.16.16-.41-.47.43-.43.59-.82,1-.26,0,.65-.67.3-.59a2.72,2.72,0,0,0-.73,1l-.52.31.31,0c.22-.13.21-.48.43-.47s0,.21-.13.34c.23-.3.87-.6,1.39-1.17S10.93,21.58,11.23,21.12Z"/><polygon class="cls-1" points="11.46 21.27 11.59 21.26 11.46 21.22 11.46 21.27"/><path class="cls-1" d="M12.35,19.93l-.42.64a.54.54,0,0,1-.21.05c.06,0,0,.22,0,.23.39-.09.6-.7.86-1,.82-.69.05.12.48,0-.21.2-.26.17-.56.46a3.9,3.9,0,0,0,1.31-1.37c-.1.07-.17.05-.32.22l.26-.35A4.27,4.27,0,0,0,12.35,19.93Z"/><path class="cls-1" d="M11.4,20.89c.19-.21.28-.28.32-.27S11.53,20.67,11.4,20.89Z"/><path class="cls-1" d="M14,18.73a.67.67,0,0,0-.16.17A.91.91,0,0,0,14,18.73Z"/><path class="cls-1" d="M13.52,18.86l.39-.36-.21.08C13.65,18.64,13.48,18.83,13.52,18.86Z"/><path class="cls-1" d="M6.35,4.1c0,.1.08.26.38.54-.12.05-.48-.34-.7-.47.33.44-.1.09-.08.27.41.43.71.51,1.14,1,0,0-.07,0,0,.13a15.91,15.91,0,0,1,2.06,2,15.93,15.93,0,0,0,1.51,1.42c1.82,1.9,3.84,3.76,5.77,5.84a2.84,2.84,0,0,1,.55.23.79.79,0,0,0,.22.3c-.18.17-.33.33-.38.26a3.31,3.31,0,0,0,.27-.26l-.17-.16a.65.65,0,0,0,.09.16c-.62.46-1.06,1.14-1.59,1.58.09,0,.31,0,.18.2-.14-.22-.6.61-1,.56-.56.46.14.17-.42.68,0,.16.56-.46.74-.48-.09.25-.53.45-.39.53a16,16,0,0,0,1.17-1.22c.46-.53.78-.95,1.6-1.85l-1.38-1.23.24,0A10.64,10.64,0,0,1,14,11.73c0,.22-.94-1-1-.73a2.35,2.35,0,0,0-.41-.52h-.13c-.34-.34-.18-.39-.58-.78.16.35-.15.09-.34.05-.35-.55-.79-1.17-1.1-1.65a.51.51,0,0,0,.1.3c-.24-.3-.28-.17-.39-.21-.27-.26-.12-.35-.05-.4-.44-.52-.89-.51-1.17-.94l0,.22c-.52-.48-.84-1-1.42-1.52-.13-.39.57.34.85.52a5.88,5.88,0,0,1-.35-.51c-.3-.16-.78-.47-1.14-.7C7.23,5,6.53,4.3,6.35,4.1Z"/><path class="cls-1" d="M7.94,5.56l.21.11A.7.7,0,0,1,8,5.5,0,0,0,0,0,7.94,5.56Z"/><path class="cls-1" d="M6.35,4.1v0C6.29,4,6.3,4.05,6.35,4.1Z"/><path class="cls-1" d="M9.18,7.59l-.07-.08L9,7.42Z"/><path class="cls-1" d="M10,7.57a4.37,4.37,0,0,0,.32.53C10.33,8,10.33,7.93,10,7.57Z"/><path class="cls-1" d="M13.27,11c.12.08.08,0,.19,0C13.25,10.86,13.14,10.82,13.27,11Z"/><polygon class="cls-1" points="7.36 4.94 6.92 4.55 6.74 4.42 7.36 4.94"/><path class="cls-1" d="M9.67,1.5a9.88,9.88,0,0,0-1.93-.09c-1.18.08-.15.35-1.26.37l.19-.33-1.84,0a3.66,3.66,0,0,0-1.49.2l.11.07c-.06,0,0,.11-.33-.13.59.57,1.15.48,1.32.81-.27-.13-.35-.14-.3,0s.15.3,0,.27L4,2.56c.5.47,1.14,1,1.43,1.27.08-.05-.09-.39.31,0-.15-.17,0-.17.06-.22-.48-.34-.66-.6-1-.77-.15-.31.18.13,0-.18a1.86,1.86,0,0,0-.35-.21c-.08-.11.17,0,.07-.11s-.29-.11-.41-.25l.1,0c-.1-.07-.16-.13-.27-.2s-.06-.06-.26-.13A5.35,5.35,0,0,1,4.27,2L4,1.86A1.81,1.81,0,0,1,4.68,2a.19.19,0,0,0,.11,0l.28,0a3.83,3.83,0,0,0,.72,0c-.27,0,0-.1.12-.13-.47-.08-.58.1-1,.11-.07-.12.68-.27.14-.34.6.14,1.12,0,1.38.29.71,0,1-.13,1.7-.06V2c.13-.2.59.1,1.12-.11L8.84,1.8c0-.08.2-.09.46-.1,0,0,0,0,.06.07.08-.15.89-.17,1-.21a7.21,7.21,0,0,0-1.17.13C9.39,1.6,9.33,1.48,9.67,1.5Z"/><path class="cls-1" d="M4.42,2.21l-.18-.08A.37.37,0,0,0,4.42,2.21Z"/><path class="cls-1" d="M12.91,1.76c.45,0-.12.13.3.2.47-.11-.53-.21-.08-.37a2.65,2.65,0,0,0,.92-.07c-.2.09-.08.29,0,.33a4,4,0,0,1,.87,0c-.74-.13.62-.08-.05-.21.05-.12.75-.2,1-.11,0,.08-.25.06-.44.07-.15.16.47.08.58.23.7-.22,2.95-.21,2.31-.56a1.91,1.91,0,0,0-.71,0c.73.07,0,.19-.05.25-.32-.06-.85.06-.73-.07l.5-.13c-1.59-.07-3.75,0-5.58,0h.79c-.09.1-.46.11-.75.15l.38.24c-.22,0-.44,0-.42-.07-.28.1-.15.16,0,.24a3.61,3.61,0,0,0-1.14.1c1,.19.83-.16,1.95,0Z"/><polygon class="cls-1" points="10.77 1.89 11 1.77 10.64 1.83 10.77 1.89"/><path class="cls-1" d="M11.14,1.38c0,.05-.13.07-.12.12C11.47,1.54,11.42,1.46,11.14,1.38Z"/><path class="cls-1" d="M16.64,1.89l.59,0-.39-.05C16.85,1.85,16.71,1.88,16.64,1.89Z"/><path class="cls-1" d="M20.77,1.28a10.38,10.38,0,0,1-2.09,0c-.45.15.21.29,0,.43.45,0,.4-.23.87-.28.18.13.7,0,1.15,0C20.67,1.39,20.67,1.33,20.77,1.28Z"/><path class="cls-1" d="M23.58,1.78a5.43,5.43,0,0,1,1.05,0c0,.08-.26.11-.49.09.14.19.41,0,.82.09,0,0-.18-.05-.07-.09a16.84,16.84,0,0,1,1.87-.05c.19-.05.37-.05.34-.17a10.43,10.43,0,0,0,1.26.29c0-.07-.33-.24-.32-.39,1.26.22,1.28,0,2.09.13a1.44,1.44,0,0,1-.42,0c.11.22.68,0,1.12,0l0,.19a5.26,5.26,0,0,1,1.64,0l-.11.1A5.2,5.2,0,0,1,33,1.88l.6,0,.59.56c.21.21.42.4.61.57l.26.42c1,.78-.82-.91,0-.47-.15.34.53.37.93,1,.14.33-.55-.46-.4-.08.23,0,.3.22.6.45-.18.06.54.57.24.54l1.15.72a2.33,2.33,0,0,0,.58.66c-.5-.51.32,0-.19-.66a38.49,38.49,0,0,1-3.26-3.19c-.28.05-.67-.67-1-.69a1.41,1.41,0,0,0,0-.18.28.28,0,0,1-.07-.09c-1.06,0,.22.12-.07.2s-.74-.1-.7-.19c-.67,0-.07.07-.41.19l-.44-.25c-2.09.08-4.87.25-7.25.1l.18.16c-1.08-.09-1.81.35-2.76,0l-.33.14c.18-.08-.19-.24.1-.35-.3.06-.61,0-.91.05l.54.07a1.1,1.1,0,0,1-.93-.06c-.8.15.48.27.66.4,1.14-.29,1.14.28,2.23.16C24.29,1.92,23.54,1.87,23.58,1.78Z"/><path class="cls-1" d="M22.18,1.35l-.16,0Z"/><path class="cls-1" d="M38.19,6.19l.23.21C38.53,6.45,38.39,6.35,38.19,6.19Z"/><polygon class="cls-1" points="20.72 1.44 20.72 1.45 20.73 1.44 20.72 1.44"/><polygon class="cls-1" points="20.18 1.83 20.48 1.83 20.43 1.76 20.18 1.83"/><path class="cls-1" d="M40.3,8.58l.07-.06S40.3,8.53,40.3,8.58Z"/><path class="cls-1" d="M46.37,14.71l-.13-.13A.53.53,0,0,0,46.37,14.71Z"/><path class="cls-1" d="M33.59,28.85a10.84,10.84,0,0,0-1.67.23L32,29c-.3,0-1.28.17-.65.32l.15-.07c.72-.13.52.13,1.08.19s.77-.2,1.25-.26a1.64,1.64,0,0,1,.36-.38c.18-.2.21-.11.2,0,.43-.41.43-.74.7-1.05.56.32,1.18-1.42,2.08-1.76.36-.44.93-.92,1.35-1.52-.16.38.48-.46.5-.23-.12-.4,1.56-1.33,1.32-1.75.78-.59,0-.05.88-.76,0,0-.1.17-.15.23.38-.25.35-.62.75-.73.66-.61,0-.2.31-.66.7-.62.55-.39,1-.62-.1-.21.37-.53.61-.93-.08.07-.56.49-.33.14.79-.74.51-.71,1.19-1.47.53-.19-.71.72,0,.22a6.59,6.59,0,0,0-.84,1.24A24.58,24.58,0,0,0,45.74,17c.39-.35-.11.27.2,0,.73-.58.83-1.18,1.44-1.64a.66.66,0,0,1,0,.15.9.9,0,0,1,.16-.24c-.5-.43-1-1.16-1.62-1.62,0,.12,0,.2-.06.15.23-.21-1-.74-1.41-1.49-.09.19-.75-.32-1.14-.68-.09-.16,0-.19,0-.23.52.69.74.43,1.28.85-.47-.33-1.06-1.06-1.5-1.31l.24,0c-.54-.57-.73-.24-1.2-.92l.13,0a30.91,30.91,0,0,0-3.51-3.42c-.14,0,.17.61.14.69.62.5,1,.7,1.54,1.07l-.13.12c.18,0,.74.47.53.12.41.28.15.37.62.7-.17.1-.42-.13-.53,0l.41.28c-.16-.06.16.25,0,.2.8.48.84,1,1.57,1.55L42.62,11c.08-.08.29.14.47.28s.19.38.49.76a4.52,4.52,0,0,1,1,.67c-.22.05.58.73.54.92.22-.05.82.72,1,.7.24.18.52.49.44.56l-.18-.14.21.22s0,0-.07,0c.19.2.3.11.33.27s-.11,0-.17-.06a.77.77,0,0,0,.25.17.58.58,0,0,1-.1.25,1.35,1.35,0,0,1-.41.35c0,.14-.59.73-.31.75-.21.11-.27-.07-.67.38-.12.36-.52.42-.76.82.29-.55,0,0,.21-.53-.34.23-.6.83-1.13,1.31-.08,0-.11,0-.19,0-.15.24-.26.55-.54.63l.11.06a12.55,12.55,0,0,1-1.3,1.07l-.26.6a4.72,4.72,0,0,0-1.67,1.94c-.22.2-.56.49-.6.45l.17-.29c-.32.3-.79.58-.82.9-.28.36-.33.13-.59.35-.45.84-2.05,1.75-1.94,2.25.26-.27.82-.71,1.31-1.22-.09.17.07.12-.11.32-.49.51-.86.66-1.31,1.21l-.13-.25a4.74,4.74,0,0,0-1.19,1.22c-.16.21-.32.42-.49.61a1.67,1.67,0,0,1-.54.4Z"/><path class="cls-1" d="M40,22.52l-.46.27.12,0A1.41,1.41,0,0,1,40,22.52Z"/><path class="cls-1" d="M39.64,22.83l-.17.26a1.06,1.06,0,0,0,.2-.24Z"/><path class="cls-1" d="M31.59,28.89a2.56,2.56,0,0,0-.56,0A1.5,1.5,0,0,0,31.59,28.89Z"/><polygon class="cls-1" points="30.99 28.97 31.25 29.02 31.29 28.98 30.99 28.97"/><path class="cls-1" d="M15.89,29.21l-.83.16c-.14-.08-1.08,0-.78-.12-.49.19-1.56,0-1.17.29,2.44-.1,5.79.06,8.6-.19l-.45.12c1.46-.23,2,.24,3.18-.2l-.16.23c.67.06,1.29-.33,2-.09l-.07-.1c.18,0,.25.05.44.05l-.07,0a3.2,3.2,0,0,1,1.27,0c0,.07-.23,0-.38.05a5.53,5.53,0,0,0,1-.08c.29.06,0,.1-.05.13,1.13-.1,1.64.14,2.44-.2.08-.06-.29-.11.12-.14a6.42,6.42,0,0,0-2,.12h.18c-.53.33-.4-.08-1.27.07A4.22,4.22,0,0,1,28.6,29c-1-.25-1.43.19-2.09-.13h.07A2.54,2.54,0,0,0,26,29a2.57,2.57,0,0,0,.44.09.81.81,0,0,0-.42.24c-.25-.14-.34.07-.74,0-.15-.13.34-.12.49-.2l-.49.1c-.45,0-.44-.15-.66-.22-.38.1.22.07-.09.21a14.12,14.12,0,0,0-3.51,0c.34,0,.12-.14.53-.12-.15,0-.67,0-.68.14a8.18,8.18,0,0,1-2.16-.06l.18.1c-.53.18-1.34-.13-2.28,0h0c-.3,0-.56.27-1.11.22C15.63,29.32,15.92,29.33,15.89,29.21Z"/><path class="cls-1" d="M12.6,29.45l.3-.14c-.34,0-.75.15-.68.24s.52,0,.56-.05S12.75,29.43,12.6,29.45Z"/><path class="cls-1" d="M6.32,29.47c-.12,0-.09.09-.14.13a28.52,28.52,0,0,1,3.5,0c.44,0,.52-.18,1.09-.23l.25.15c.31-.09,1.23.07.91-.17a1.79,1.79,0,0,1-.53.07l0-.09-.6,0,.19-.1c-.81-.15-.57.31-1.57.21v-.2a7.55,7.55,0,0,1-1.6-.07s0,.1.11.06.26.1.18.16c-1,.16.16-.13-.55-.21a10,10,0,0,1-3,.09c.4.13-.2.26-.68.25-.22-.07.15-.12.23-.18a2.31,2.31,0,0,0-.64-.05c.3.12.11.27-.42.34A31.89,31.89,0,0,0,6.32,29.47Z"/><path class="cls-1" d="M6,29.65c.12,0,.17,0,.2,0H5.72Z"/><polygon class="cls-1" points="34.1 29.99 34.43 29.73 34.43 29.55 34.1 29.99"/><path class="cls-1" d="M35.82,28.93l.47-.55c-.55,0-.09-.28-1.06.32-.24.31-.76,1-.57,1a5.32,5.32,0,0,1,.7-.87c0,.2-.37.51-.42.76.55-.4.23-.36.79-.85Z"/><path class="cls-1" d="M36.16,28.07c0,.09,0,.18,0,.21S36.39,27.89,36.16,28.07Z"/><path class="cls-1" d="M36.44,27.73c.32-.3.09.11.13.09l.2-.53Z"/><path class="cls-1" d="M37.77,26.42a1.83,1.83,0,0,0,.13-.16C37.82,26.28,37.81,26.35,37.77,26.42Z"/><path class="cls-1" d="M38.4,25.75c-.19.07-.32.27-.5.51h0c.23-.13.18.16-.14.42s-.37.19-.56.53l.46-.27A4,4,0,0,0,38.4,25.75Z"/><path class="cls-1" d="M37.77,26.42a1.41,1.41,0,0,1-.17.18A.36.36,0,0,0,37.77,26.42Z"/><polygon class="cls-1" points="37.09 27.07 36.95 27.26 37.04 27.27 37.09 27.07"/><path class="cls-1" d="M39.48,24.66c.08.24-.8.76-.75,1,.42-.44.88-.66.87-.48l.43-.52C40.12,24.41,39.8,24.49,39.48,24.66Z"/><path class="cls-1" d="M40.82,24.14A.31.31,0,0,1,40.9,24,.33.33,0,0,0,40.82,24.14Z"/><path class="cls-1" d="M42.93,21.47,42,22.74c0-.16,0-.17.19-.44-.51.47-.47.64-.89,1-.28,0,.7-.73.33-.63a3.26,3.26,0,0,0-.8,1.08l-.55.35h.32c.23-.13.24-.5.47-.5s-.05.22-.16.36c.26-.32.93-.67,1.5-1.28S42.6,22,42.93,21.47Z"/><polygon class="cls-1" points="43.16 21.61 43.3 21.6 43.16 21.57 43.16 21.61"/><path class="cls-1" d="M44.15,20.18l-.47.69a.63.63,0,0,1-.22.05c.06,0,0,.24,0,.25.41-.12.65-.76.93-1.09.89-.75,0,.12.51-.06-.23.23-.28.2-.61.51a4.7,4.7,0,0,0,1.43-1.48c-.11.08-.18.05-.35.24l.29-.38A5.08,5.08,0,0,0,44.15,20.18Z"/><path class="cls-1" d="M43.12,21.22c.2-.23.29-.3.33-.3S43.25,21,43.12,21.22Z"/><path class="cls-1" d="M45.91,18.87a.76.76,0,0,0-.16.18A.77.77,0,0,0,45.91,18.87Z"/><path class="cls-1" d="M45.41,19l.42-.39-.23.09C45.55,18.78,45.36,19,45.41,19Z"/><path class="cls-1" d="M37.39,3.1c0,.1.09.28.42.58-.12,0-.51-.38-.75-.52.36.47-.1.09-.07.27.45.47.76.57,1.23,1.08,0,0-.08,0,0,.14a18.59,18.59,0,0,1,2.23,2.11A17.36,17.36,0,0,0,42,8.3c2,2,4.15,4.07,6.23,6.31a2.26,2.26,0,0,1,.53.2c0,.12.25.34.4.49-.12.11-.21.18-.26.13l.16-.13L48.76,15a3.05,3.05,0,0,0,.22.32c-.58.49-1,1.15-1.56,1.58.09,0,.32,0,.18.21-.14-.22-.65.66-1,.62-.61.5.13.17-.47.72,0,.17.6-.5.79-.53-.1.27-.56.49-.43.58.35-.32.76-.76,1.22-1.27l.7-.81.41-.48.56-.62-1.6-1.44.25.05a12.16,12.16,0,0,1-2.4-2.56c0,.23-1-1.12-1.12-.8a3.12,3.12,0,0,0-.44-.56h-.14c-.37-.38-.21-.42-.64-.84.19.37-.15.09-.35,0L41.7,7.42a.69.69,0,0,0,.12.32c-.26-.32-.3-.19-.41-.23-.29-.28-.14-.37-.07-.42-.48-.56-.94-.56-1.25-1l0,.23c-.56-.51-.91-1.07-1.54-1.63-.16-.42.6.37.9.56a4.88,4.88,0,0,1-.38-.53c-.32-.19-.84-.53-1.21-.78C38.35,4.06,37.58,3.31,37.39,3.1Z"/><path class="cls-1" d="M39.11,4.69l.22.12-.21-.19S39.1,4.66,39.11,4.69Z"/><path class="cls-1" d="M37.39,3.1v0C37.33,3,37.34,3,37.39,3.1Z"/><path class="cls-1" d="M40.48,6.85l-.07-.09-.1-.1Z"/><path class="cls-1" d="M41.35,6.86c.08.15.21.35.35.56C41.69,7.33,41.69,7.25,41.35,6.86Z"/><path class="cls-1" d="M44.87,10.6c.13.09.09,0,.2.05C44.85,10.42,44.74,10.37,44.87,10.6Z"/><polygon class="cls-1" points="38.48 4.01 38 3.59 37.81 3.45 38.48 4.01"/><path class="cls-1" d="M26.7.63a10.73,10.73,0,0,0,2.09.09C30.06.64,29,.37,30.16.35L30,.68a18.79,18.79,0,0,0,4-.24c.11,0,.3.09,0,.14a1,1,0,0,0,.26,0c.4.28.52-.08,1.11.65-.85-.57.1.37-.24.32l-.12-.1c.49.47,1.21,1,1.52,1.36.07,0-.12-.41.32,0-.16-.19,0-.19,0-.23a12.56,12.56,0,0,0-1.06-.85c-.16-.32.2.14,0-.18l-.42-.28c-.24-.28.35.19,0-.23A.88.88,0,0,1,35,.83a1.92,1.92,0,0,1-.23-.19l-.3-.29.17.12L34.3.18c-.48,0-.67,0-.55.15L33.34.15l.08.12A9.67,9.67,0,0,0,30.9.08c.29,0,0,.11-.13.13.51.09.63-.09,1.11-.11.07.12-.75.27-.16.35-.65-.15-1.21,0-1.49-.3a16.19,16.19,0,0,1-1.85.06l0,0c-.15.2-.64-.09-1.22.12l.41,0c0,.09-.22.09-.5.1,0,0,0,0-.06-.07-.08.15-1,.17-1.08.22A10.1,10.1,0,0,0,27.22.44C27,.53,27.07.65,26.7.63Z"/><path class="cls-1" d="M34.85.6,34.62.47A.69.69,0,0,0,34.85.6Z"/><path class="cls-1" d="M23.2.37c-.49,0,.13-.13-.33-.2-.5.11.58.22.09.37a3.14,3.14,0,0,0-1,.07c.23-.09.1-.29,0-.33a5.37,5.37,0,0,1-.94,0c.79.12-.67.07,0,.2A1.75,1.75,0,0,1,20,.55c0-.08.27-.06.47-.07S19.93.4,19.82.25c-.76.23-3.19.21-2.5.57a2.46,2.46,0,0,0,.76,0c-.79-.07,0-.19.06-.25.34.06.92-.05.79.07l-.54.14c1.72.06,4.06,0,6,0h-.85c.09-.1.5-.1.81-.15L24,.34c.25,0,.48,0,.46.06.3-.1.17-.16,0-.24a4.19,4.19,0,0,0,1.23-.1c-1.06-.19-.89.16-2.11,0Z"/><polygon class="cls-1" points="25.52 0.24 25.26 0.36 25.65 0.3 25.52 0.24"/><path class="cls-1" d="M25.11.76c0-.06.15-.08.13-.13C24.75.6,24.81.67,25.11.76Z"/><path class="cls-1" d="M19.17.24l-.64,0,.41,0S19.09.26,19.17.24Z"/><path class="cls-1" d="M14.7.86A11.28,11.28,0,0,1,17,.84c.49-.15-.23-.29,0-.43-.49,0-.43.23-.94.28-.2-.13-.76,0-1.25,0C14.81.74,14.81.81,14.7.86Z"/><path class="cls-1" d="M11.66.35a7.62,7.62,0,0,1-1.14,0c.05-.09.29-.12.53-.09-.15-.19-.44,0-.88-.1,0,0,.2,0,.08.09a17.42,17.42,0,0,1-2,.05c-.2,0-.4,0-.37.17C7.05.36,7.46.36,6.49.22c0,.07.35.24.35.4C5.48.4,5.45.65,4.58.48A1.4,1.4,0,0,1,5,.46c-.11-.22-.73,0-1.21,0l0-.19L3,.33a3.85,3.85,0,0,1-.48,0L2,.28,2.15.19C1.4.25.7.27,0,.28l1,1c.31.3.67.65.84.79l.29.45c1,.85-.9-1,0-.49-.14.35.56.41,1,1,.16.35-.59-.5-.42-.11.24,0,.32.25.65.51-.18,0,.58.61.27.57l1.23.79a2.28,2.28,0,0,0,.63.7c-.54-.54.32,0-.23-.69-.48-.41-1.09-1-1.72-1.59l-.94-.94-.45-.47c-.13-.13-.25-.27-.37-.4s-.33-.18-.49-.34A2.33,2.33,0,0,0,.71.62l.2,0a2.11,2.11,0,0,1,.3.1c.31,0,.24-.06,0-.1S.72.59.74.55a1.7,1.7,0,0,1,1,.19c.57,0,0-.07.25-.19.22.09.31.17.48.25C4.73.73,7.73.56,10.31.7l-.2-.16c1.17.09,2-.35,3,0l.36-.14c-.2.08.2.24-.11.35.32-.06.66,0,1-.05L13.75.62a1.26,1.26,0,0,1,1,.07c.87-.16-.52-.28-.71-.41C12.81.57,12.8,0,11.62.12,10.89.21,11.7.27,11.66.35Z"/><path class="cls-1" d="M13.17.78l.18,0Z"/><path class="cls-1" d="M5.52,5.55a3,3,0,0,0,.25.24C5.88,5.85,5.73,5.73,5.52,5.55Z"/><polygon class="cls-1" points="14.75 0.69 14.75 0.69 14.74 0.69 14.75 0.69"/><polygon class="cls-1" points="15.34 0.3 15.01 0.3 15.07 0.37 15.34 0.3"/><path class="cls-1" d="M7.81,8.13l.07-.06S7.81,8.08,7.81,8.13Z"/><path class="cls-1" d="M14.37,14.76l-.13-.14A.57.57,0,0,0,14.37,14.76Z"/><path class="cls-1" d="M.78,30.22l1.29-.09A5.16,5.16,0,0,0,3,30l0,.08c.33,0,1.38-.17.7-.32l-.16.07c-.77.12-.58-.14-1.15-.19-.13,0-.3.09-.55.16a3.41,3.41,0,0,1-.81.13l.13-.11a.52.52,0,0,1,.37-.18.5.5,0,0,0,.19-.34,1,1,0,0,1,.22-.42c.57.31,1.29-1.53,2.24-1.92.4-.47,1-1,1.46-1.63-.17.4.53-.51.53-.26-.1-.41,1.68-1.45,1.46-1.87.83-.65,0-.06.94-.83,0,0-.11.18-.16.24.4-.27.38-.66.81-.79.71-.66,0-.2.34-.69.75-.68.6-.43,1.12-.69-.09-.22.41-.57.68-1-.09.08-.61.53-.35.16.85-.8.56-.77,1.29-1.58.56-.22-.77.78,0,.23a7.3,7.3,0,0,0-.93,1.32,30.69,30.69,0,0,0,2.09-2.26c.42-.38-.13.28.2,0,.79-.63.92-1.26,1.57-1.76a1.21,1.21,0,0,1,0,.18,2.29,2.29,0,0,1,.31-.4c-.51-.48-1.06-1.18-1.62-1.63,0,.13.07.21-.05.15.23-.21-1-.8-1.52-1.61-.09.2-.8-.36-1.22-.74-.1-.18,0-.21,0-.25.57.74.78.49,1.37.94C12,11.8,11.36,11,10.88,10.74l.26,0c-.59-.62-.78-.28-1.3-1l.15,0a38,38,0,0,0-3.8-3.69c-.15,0,.2.64.18.72C7,7.32,7.49,7.55,8,8l-.13.12c.19,0,.79.52.55.15.44.31.17.39.67.75-.16.1-.43-.14-.55,0L9,9.24c-.17-.07.18.27,0,.21.85.53.9,1,1.69,1.67l-.37-.42c.07-.07.29.17.49.32.09.3.22.4.54.81a4.9,4.9,0,0,1,1.11.73c-.23,0,.64.79.6,1,.23-.05.88.78,1,.76.26.2.56.53.48.6l-.2-.15.23.24s0,0-.07,0a.5.5,0,0,0,.13.1l.07,0a.14.14,0,0,1,.11.13c-.07,0-.12-.05-.18-.08a.7.7,0,0,0,.18.14.7.7,0,0,1-.14.31,1.57,1.57,0,0,1-.52.47c0,.16-.64.79-.36.8-.22.12-.27-.06-.71.42-.14.38-.56.46-.82.89.33-.59,0,0,.24-.57-.36.26-.66.89-1.22,1.41-.09,0-.12,0-.21,0-.16.24-.29.58-.59.67l.12.06A16.35,16.35,0,0,1,9.23,21l-.29.63a5.41,5.41,0,0,0-1.82,2.08c-.23.22-.61.54-.64.5l.19-.31c-.35.33-.85.64-.9,1-.3.38-.35.15-.63.39-.5.89-2.19,1.9-2.1,2.41.28-.28.88-.76,1.41-1.32-.11.19.07.13-.13.34-.53.56-.92.73-1.41,1.32l-.13-.26c-1,.63-1.44,1.75-2.29,2.42A.91.91,0,0,1,.78,30.22Z"/><path class="cls-1" d="M7.22,23.24l-.49.3.13,0A1.43,1.43,0,0,1,7.22,23.24Z"/><path class="cls-1" d="M6.86,23.58a1.48,1.48,0,0,0-.19.27,2.53,2.53,0,0,0,.22-.26Z"/><path class="cls-1" d="M3.33,30.17a2.35,2.35,0,0,0,.61,0A1.57,1.57,0,0,0,3.33,30.17Z"/><polygon class="cls-1" points="3.98 30.09 3.7 30.05 3.66 30.08 3.98 30.09"/><path class="cls-1" d="M20.31,29.86l.9-.17c.15.09,1.17,0,.84.13.53-.2,1.69,0,1.26-.29-2.63.1-6.26-.07-9.3.18l.49-.11c-1.58.23-2.17-.25-3.44.2l.17-.23c-.72-.06-1.38.33-2.14.09l.08.09c-.2,0-.28,0-.49,0l.08,0a4.2,4.2,0,0,1-1.37,0c0-.07.24,0,.4-.05-.23-.08-.65.08-1,.08s0-.11,0-.14c-1.22.1-1.77-.14-2.64.2-.08.07.32.12-.12.15a7.84,7.84,0,0,0,2.18-.12H6c.58-.33.44.07,1.38-.07a5.21,5.21,0,0,1-.82.21c1.08.25,1.54-.2,2.26.13H8.75a2.93,2.93,0,0,0,.68-.06A2.8,2.8,0,0,0,9,30a.82.82,0,0,0,.46-.24c.27.15.36-.07.81,0,.15.13-.37.12-.54.19l.53-.09c.49,0,.48.15.72.22.41-.1-.24-.07.09-.22a16,16,0,0,0,3.8,0c-.37,0-.13.15-.57.13.16,0,.72,0,.73-.15a10.1,10.1,0,0,1,2.34.07l-.2-.1c.57-.18,1.45.13,2.46,0h0c.33,0,.61-.27,1.2-.22C20.6,29.74,20.27,29.73,20.31,29.86Z"/><path class="cls-1" d="M23.87,29.62l-.33.14c.37,0,.82-.15.74-.25-.24,0-.56,0-.61,0S23.71,29.64,23.87,29.62Z"/><path class="cls-1" d="M30.66,29.59c.13,0,.1-.08.15-.13a33.83,33.83,0,0,1-3.78,0c-.48-.05-.57.17-1.18.22l-.27-.14c-.33.09-1.34-.07-1,.17a2,2,0,0,1,.57-.07l-.05.08.65,0-.21.11c.89.15.62-.31,1.71-.22v.21a8.1,8.1,0,0,1,1.73.07s0-.11-.11-.06-.28-.1-.2-.16c1.1-.16-.17.12.6.21a12.06,12.06,0,0,1,3.23-.1c-.44-.12.22-.26.74-.24.24.07-.17.12-.25.18a3.12,3.12,0,0,0,.68.05c-.31-.12-.11-.28.46-.35C32.9,29.23,31.91,29.62,30.66,29.59Z"/><path class="cls-1" d="M31,29.42a.41.41,0,0,0-.22,0h.5Z"/><rect class="cls-1" x="16.51" y="14.8" width="258.7" height="1"/><polygon class="cls-1" points="275.14 15.8 275.18 14.83 274.76 14.81 274.31 14.94 275.1 14.9 275.14 15.8"/><path class="cls-1" d="M269.39,14.4l-2.46,0c1.41.37-.49.26,3.36.53,1.35-.06,4.32-.19,3.93-.33-1,0-2.39.15-3.84.11.62-.11,2.17-.09,2.89-.23-2.32-.12-1.46.09-4,0Z"/><path class="cls-1" d="M266.48,14.77c.22-.07.46-.13.42-.18C266.67,14.65,265.47,14.73,266.48,14.77Z"/><path class="cls-1" d="M265,14.8c-1.56,0,0-.13-.14-.15l-1.76.24Z"/><path class="cls-1" d="M258.51,14.79l-.72,0A2.5,2.5,0,0,0,258.51,14.79Z"/><path class="cls-1" d="M255.34,14.82a16.68,16.68,0,0,0,2.45,0h-.1c-.89-.07-.05-.24,1.38-.2s1.37.13,2.67,0L260,14.48A43.07,43.07,0,0,0,255.34,14.82Z"/><path class="cls-1" d="M258.51,14.79h.85A4.56,4.56,0,0,0,258.51,14.79Z"/><polygon class="cls-1" points="261.76 14.81 262.57 14.77 262.37 14.7 261.76 14.81"/><path class="cls-1" d="M250,14.83c.37-.23,3.79,0,4.21-.15-2.09,0-3.77-.16-3.31-.29l-2.31.07C247.84,14.55,248.82,14.72,250,14.83Z"/><path class="cls-1" d="M245.5,14.24a4,4,0,0,1-.53,0A3.61,3.61,0,0,0,245.5,14.24Z"/><path class="cls-1" d="M233.79,14.64l5.41-.23a5.38,5.38,0,0,1-1.54.17c2.4,0,2.71-.11,4.68-.09.6.22-3.48,0-2.34.21a38.71,38.71,0,0,0,4.59-.2l2.21.15-.75-.24a18.92,18.92,0,0,1-2.36,0c-.28-.1.62-.12,1.25-.14-1.42,0-3.9-.19-6.8-.16C235.08,14.16,235.8,14.53,233.79,14.64Z"/><polygon class="cls-1" points="233.58 14.38 233.22 14.29 233.47 14.41 233.58 14.38"/><path class="cls-1" d="M227.68,14.69l2.82-.15a3.25,3.25,0,0,1,.67.12c-.11-.06.65-.15.53-.2a33.46,33.46,0,0,0-5,.11c-4-.1.18-.12-1.37-.32l2.71.07a54.37,54.37,0,0,0-7.08,0,9.4,9.4,0,0,0,1.44.07l-1.63.07A58.17,58.17,0,0,0,227.68,14.69Z"/><path class="cls-1" d="M232.71,14.69a10.45,10.45,0,0,1-1.53,0A5,5,0,0,0,232.71,14.69Z"/><path class="cls-1" d="M220.15,14.37a8.45,8.45,0,0,0,.85,0C220.81,14.36,220.55,14.35,220.15,14.37Z"/><path class="cls-1" d="M221.75,14.62l-2,0,.77.1A6.45,6.45,0,0,0,221.75,14.62Z"/><path class="cls-1" d="M146.29,14.3a10.14,10.14,0,0,0,2.42.11c-.18.12-2.15.09-3.08.16,2,.07,0,.14.48.25,2.25,0,3.24-.14,5.65-.11-.12,0-.07.08.24.12,2.89-.07,7.79-.18,10.61-.08s4.74,0,7.74-.06c9.83.06,20.08-.06,30.65.05l1.5-.23c.51.11,2.52,0,2.22.15-.58,0-1.13,0-1.82,0,2.26.2,6,0,8.71.05-.31,0-.75-.24.07-.27-.22.25,3.2,0,4,.28,2.71.08.1-.22,2.93-.18.3-.14-2.71-.07-3.23-.18.89-.12,2.56.05,2.44-.1-4.54-.08-13,.23-19.88.31l.72-.13c-3.55.09-9.28.1-12.12-.13.67.13-5.23-.07-4.71.23-.89-.07-1.16-.06-2.44-.08l-.34.09c-1.83,0-1.53-.14-3.62-.13,1.36.12-.14.16-.75.27l-7.3-.39a6.12,6.12,0,0,0,1.09.15,3.56,3.56,0,0,0-1.58.12c-1.4,0-1.25-.16-1.18-.25-2.56-.05-3.7.27-5.61.16l.67.14c-2.63,0-4.85-.12-7.75-.07-1.4-.19,2.39-.16,3.59-.24-.59,0-1.84-.05-2.24-.11l-4.87.31C151,14.3,147.28,14.31,146.29,14.3Z"/><path class="cls-1" d="M154.37,14.2l.84-.07c-.28,0-.54,0-1,0C154.2,14.17,154.26,14.19,154.37,14.2Z"/><path class="cls-1" d="M146.29,14.3l-.06,0C145.94,14.29,146,14.29,146.29,14.3Z"/><path class="cls-1" d="M163,14.76h0Z"/><path class="cls-1" d="M165.16,14.16l2.22.14A9.74,9.74,0,0,0,165.16,14.16Z"/><path class="cls-1" d="M182.9,14.31c.54,0,.23-.07.61-.11C182.39,14.2,182,14.24,182.9,14.31Z"/><polygon class="cls-1" points="151.19 14.17 148.98 14.21 148.17 14.24 151.19 14.17"/><path class="cls-1" d="M106.43,14.86c1.95.16,4.81.06,7.21.09,4.41-.08.56-.34,4.74-.36l-.72.33c4.18,0,10.11,0,13.65-.24.31,0,1.05.09,0,.13,2.79,0,1.44-.46,5.16-.36-3.47.21,1.14.2.19.4l-.54,0c2.36,0,5.48-.13,7-.11.07-.09-1.3-.21.79-.22-.84,0-.5-.12-.43-.2-2.16.09-3.33,0-4.65.15-1.2-.11.82,0-.39-.15l-1.73.1c-1.28,0,1.31-.11-.67-.13a30.35,30.35,0,0,1-3.4.12l.45,0c-1.19,0-2.88,0-2.3.17l-1.41-.18.25.13c-3.26,0-4.48-.35-8.69-.19,1,0,.09.1-.45.12,1.75.09,2.16-.09,3.82-.11.25.13-2.57.28-.55.35-2.22-.15-4.18,0-5.13-.29-2.68,0-3.68.13-6.39.06l.07,0c-.5.21-2.2-.09-4.21.12l1.43.05a7.57,7.57,0,0,1-1.73.1c.11,0,.11,0-.2-.08-.3.15-3.35.18-3.74.22,1.28,0,2.86-.1,4.37-.13A6.64,6.64,0,0,1,106.43,14.86Z"/><path class="cls-1" d="M134,14.32l-.86.07A5.69,5.69,0,0,0,134,14.32Z"/><path class="cls-1" d="M94.33,14.6c-1.7,0,.46-.12-1.13-.19-1.73.1,2,.21.3.36-1-.09-2.75.07-3.45.07.77-.09.33-.28,0-.32-.66.05-2.13,0-3.26,0,2.76.12-2.31.07.17.21a21.14,21.14,0,0,1-3.83.11,7,7,0,0,1,1.63-.07c.57-.16-1.75-.09-2.14-.23-2.63.22-11,.2-8.64.56.89.07,1.66,0,2.63,0-2.72-.08,0-.19.22-.26,1.16.06,3.16,0,2.71.08L77.71,15c5.92.07,14,0,20.83,0h-3c.35-.09,1.74-.1,2.82-.15L97,14.57a6.36,6.36,0,0,1,1.6.07c1-.1.56-.16-.06-.24,2.2,0,2.56,0,4.26-.11-3.66-.19-3.09.16-7.28,0Z"/><polygon class="cls-1" points="102.34 14.47 101.46 14.59 102.81 14.53 102.34 14.47"/><path class="cls-1" d="M100.94,15c0-.05.5-.07.46-.13C99.69,14.83,99.89,14.9,100.94,15Z"/><path class="cls-1" d="M80.39,14.48l-2.2,0,1.43,0C79.58,14.51,80.12,14.49,80.39,14.48Z"/><path class="cls-1" d="M64.94,15.09c3.06,0,4.37-.13,7.82,0,1.69-.15-.79-.28-.06-.42-1.71,0-1.5.22-3.28.27-.66-.13-2.6,0-4.29,0C65.34,15,65.34,15,64.94,15.09Z"/><path class="cls-1" d="M54.42,14.58c-1.39,0-2.8.1-3.91,0a7.79,7.79,0,0,1,1.83-.09c-.53-.19-1.54,0-3.05-.1.13,0,.68.05.26.1-3.76,0-2.11.15-7,0-.7,0-1.4,0-1.28.18-2.77-.16-1.37-.16-4.7-.3.13.08,1.22.24,1.2.4-4.71-.22-4.81,0-7.81-.13.33,0,.74-.05,1.55,0-.39-.22-2.52,0-4.19,0l.16-.19c-1.54,0-4.21.15-6.14,0l.44-.09-2.61.07-3,0v.59s0-.11,0-.1v.05a1.94,1.94,0,0,0,0,.24,1.66,1.66,0,0,0,0,.24l0,.06v.48l3.22,0,2.66,0,1.8.12c4.63-.14-4.6-.07-1.21-.35.51.35,2.39-.11,5,0,1.25.14-2.66.07-1.28.23a16.42,16.42,0,0,1,2.8-.11c-.3.17,2.93,0,2.07.22l4.93-.31a31.2,31.2,0,0,0,3.27.05c-2.66,0,.73-.25-2.25-.32-4.34.08-11.61.13-17,0a27.65,27.65,0,0,1-3.67.12,4.67,4.67,0,0,0-.06-.6c0-.06.07-.2.11-.26a1.53,1.53,0,0,1,.32.1c3.27-.05-.84-.13-.08-.21a7.8,7.8,0,0,1,2.63.19c2.51,0,.29-.06,1.57-.18l1.63.25c7.83-.08,18.19-.25,27.1-.11l-.67-.15c4,.08,6.75-.35,10.33,0l1.22-.13c-.67.07.7.23-.36.34,1.1-.05,2.26,0,3.4,0l-2-.08a14.18,14.18,0,0,1,3.45.07c3-.16-1.79-.27-2.46-.4-4.24.29-4.27-.29-8.34-.17C51.8,14.44,54.58,14.5,54.42,14.58Z"/><path class="cls-1" d="M59.67,15c.27,0,.47,0,.62,0Z"/><path class="cls-1" d="M39.51,15.91H40.7C41.1,15.86,40.46,15.89,39.51,15.91Z"/><path class="cls-1" d="M65.13,14.92h0Z"/><polygon class="cls-1" points="67.15 14.54 66.03 14.53 66.22 14.6 67.15 14.54"/><path class="cls-1" d="M51.42,16.11V16C51.32,16.05,51.28,16.08,51.42,16.11Z"/><path class="cls-1" d="M83.66,16.16H83C83.18,16.17,83.43,16.16,83.66,16.16Z"/><path class="cls-1" d="M161,16c2.11-.05,4.91-.1,6.46-.24l-.15.09c1.12,0,4.77-.18,2.42-.33l-.57.08a27.25,27.25,0,0,1-4-.19c-2.51,0-4,.35-6.17.27-1,0-.83-.07-.54-.13-2.24,0-3.11.21-4.64.24-.61-.62-6.87.17-10.17-.22-2.09,0-4.88,0-7.55.12,1.42-.16-2.51,0-1.93-.19-.75.36-7.65-.17-8.13.29-3.62-.13-.15,0-4.32-.08a5.39,5.39,0,0,1,1-.06c-1.66-.09-2.54.2-3.91,0-3.34,0-.57.12-2.54.25a25.57,25.57,0,0,1-4.42-.31c-.31.22-2.39.12-4.09.23.42,0,2.79,0,1.24.14-4,0-3.24.14-7,.2-1.92-.24,3.77,0,.45-.2,2.39-.11,4.2-.1,5.48-.28-3.21,0-7.12,0-10.63.13-2,0,1-.11-.54-.14-3.47-.1-5.34.25-8.11.14l.58-.12c-1.71.16-6.15,0-9.36.05.4.07.68.11.25.15.05-.31-4.49.16-7.67-.06.25.2-2.83.31-4.79.33-.69-.05-.54-.13-.54-.19,3.2.12,3.11-.21,5.64-.3-2.11.1-5.59,0-7.43.14l.72-.16c-2.92,0-2.55.35-5.61.2l.3-.11c-6.15,0-13.37-.19-18.3.07-.43.09,2,.31,2.18.39,2.94-.09,4.64-.25,6.88-.33l0,.18c.51-.13,3.21-.2,1.72-.3,1.82-.09,1.37.16,3.48.06-.17.19-1.43.21-1.45.36L57,16.06c-.57.07,1.1.06.54.14,3.38-.23,4.73.08,8.24,0l-2,0a9.76,9.76,0,0,1,2-.12,30.19,30.19,0,0,0,3.32.19c1.55-.09,2.41-.27,4.51-.27-.45.2,3.47.11,3.87.27.44-.19,4.06-.07,4.35-.18a12,12,0,0,1,2.64.08l-.84,0h1.12a1,1,0,0,1-.2,0,16.55,16.55,0,0,1,2.29,0,7.93,7.93,0,0,1-1.27.07c2.65,0,4.66-.3,6.86-.12.43-.09,3.5-.1,2.84-.31a10.57,10.57,0,0,0,2.76.21c1.28-.18,2.5.06,4.19,0-2.26.19,0,0-2,.23,1.53.07,3.8-.16,6.45-.13.27,0,.26.09.54.13a15.81,15.81,0,0,1,3.07-.06L110.2,16c1.82.06,4.33,0,6.27.16l2.26-.24a62.58,62.58,0,0,0,9.52-.19l1.81,0a5.12,5.12,0,0,1,1,.07l-1.22.09a32.64,32.64,0,0,0,4.56-.06,17.07,17.07,0,0,1,2.49.17c3.4-.28,10,.21,11.06-.22-1.39,0-4-.09-6.69-.07.71,0,.16-.13,1.14-.14,2.66,0,4,.14,6.69.07l-.32.27C153.31,16.24,157.45,15.6,161,16Z"/><path class="cls-1" d="M127,16l1.93.14-.21-.12A16.18,16.18,0,0,1,127,16Z"/><path class="cls-1" d="M128.69,16l1.12-.05c-.42,0-.82,0-1.17,0Z"/><path class="cls-1" d="M168.7,15.94c.43,0,1.26,0,2.1,0A21,21,0,0,0,168.7,15.94Z"/><polygon class="cls-1" points="170.95 15.86 169.98 15.82 169.84 15.85 170.95 15.86"/><path class="cls-1" d="M227.38,15.62l3.1-.16c.54.08,4.05,0,2.91.13,1.85-.2,5.86,0,4.37-.29-9.08.09-21.63-.07-32.14.18l1.7-.11c-5.47.22-7.5-.25-11.89.2l.58-.23c-2.5-.07-4.79.33-7.41.09l.27.09-1.67,0,.28,0c-1.83.09-2.95.08-4.75,0-.13-.08.84,0,1.4-.06-.83-.07-2.25.09-3.65.08-1.1-.06,0-.1.17-.13-4.21.1-6.12-.14-9.1.2-.29.06,1.09.12-.44.15,2.77.1,5,0,7.55-.12H178c2-.34,1.53.07,4.76-.07-.86.13-2.26.13-2.82.2,3.73.26,5.33-.19,7.79.14h-.27c.55,0,1.53,0,2.37-.07-.27,0-1.1-.06-1.65-.09a7,7,0,0,0,1.57-.24c.95.15,1.26-.07,2.79,0,.54.14-1.28.13-1.84.2l1.83-.09a12.49,12.49,0,0,1,2.47.22c1.41-.11-.83-.07.32-.22,1.79.17,9.47.12,13.12,0-1.26,0-.44.14-2,.12a13.16,13.16,0,0,0,2.53-.14c2.52-.09,5.73,0,8.09.07l-.69-.11c2-.17,5,.13,8.51,0h-.07c1.12,0,2.09-.28,4.16-.23C228.38,15.51,227.26,15.5,227.38,15.62Z"/><path class="cls-1" d="M239.7,15.38l-1.13.15a6.59,6.59,0,0,0,2.54-.25,20.94,20.94,0,0,0-2.1.05A1.87,1.87,0,0,0,239.7,15.38Z"/><path class="cls-1" d="M263.16,15.36c.46,0,.34-.09.53-.13-5,0-11.09.08-13.07,0-1.68,0-2,.18-4.08.23l-.95-.15c-1.14.1-4.6-.06-3.38.18a19.3,19.3,0,0,1,2-.07l-.16.08,2.24,0-.71.1c3,.15,2.14-.31,5.89-.21l0,.21c2.52,0,3.78-.06,6,.06,0,0,0-.1-.4-.06s-1-.09-.68-.16c3.8-.16-.58.13,2.06.21,3.24-.14,9.39-.26,11.18-.09-1.51-.13.74-.26,2.55-.25.83.08-.58.13-.86.19.84,0,1.52.07,2.37,0-1.1-.11-.38-.27,1.58-.34C270.89,15,267.48,15.38,263.16,15.36Z"/><path class="cls-1" d="M264.44,15.18a5.27,5.27,0,0,0-.75.05h1.73Z"/><polygon class="cls-1" points="300.91 15.3 270.03 1.78 270.03 28.82 300.91 15.3"/><polygon class="cls-1" points="300.94 15.35 300.68 15.42 300.65 15.57 300.94 15.35"/><path class="cls-1" d="M299.62,15.43l-.39.23c.38.23,0,.27.77.24.2-.16.64-.49.52-.59-.16.08-.34.31-.59.38.06-.15.32-.25.38-.43-.43.07-.2.19-.65.33Z"/><path class="cls-1" d="M299.28,16a.44.44,0,0,0,0-.2C299.26,15.86,299.1,16,299.28,16Z"/><path class="cls-1" d="M299,16.12c-.26.1-.05-.12-.08-.13l-.2.35Z"/><path class="cls-1" d="M298,16.58l-.11.07C297.91,16.67,297.93,16.63,298,16.58Z"/><path class="cls-1" d="M297.44,16.84c.14,0,.25-.08.41-.19h0c-.18,0-.11-.22.15-.28s.28,0,.45-.18h-.35A1.89,1.89,0,0,0,297.44,16.84Z"/><path class="cls-1" d="M298,16.58l.14-.07A.15.15,0,0,0,298,16.58Z"/><polygon class="cls-1" points="298.51 16.36 298.63 16.27 298.57 16.22 298.51 16.36"/><path class="cls-1" d="M296.56,17.24c0-.24.65-.26.64-.45-.34.16-.69.13-.66,0l-.36.23C296.08,17.14,296.32,17.23,296.56,17.24Z"/><path class="cls-1" d="M295.57,17a.18.18,0,0,1-.07.08S295.57,17.05,295.57,17Z"/><path class="cls-1" d="M293.78,18.25l.81-.61c0,.11,0,.16-.19.27.42-.14.41-.3.75-.42.18.15-.58.26-.31.36a1.36,1.36,0,0,0,.68-.52l.43,0-.22-.17c-.18,0-.23.3-.38.19s0-.15.15-.22c-.22.15-.73.12-1.2.36S294.07,18,293.78,18.25Z"/><polygon class="cls-1" points="293.64 18.03 293.55 17.97 293.64 18.07 293.64 18.03"/><path class="cls-1" d="M292.78,18.74l.41-.34a.43.43,0,0,1,.16.05s0-.18,0-.21c-.3-.1-.55.31-.78.46-.71.2,0-.12-.36-.19.19-.08.22,0,.48-.14-.5,0-.92.39-1.16.56.08,0,.13,0,.27,0l-.25.18A2.09,2.09,0,0,0,292.78,18.74Z"/><path class="cls-1" d="M293.62,18.37c-.17.09-.24.11-.27.09S293.5,18.5,293.62,18.37Z"/><path class="cls-1" d="M291.4,19a.35.35,0,0,0,.14-.07A.23.23,0,0,0,291.4,19Z"/><path class="cls-1" d="M291.77,19.11l-.34.12.17,0S291.8,19.16,291.77,19.11Z"/><path class="cls-1" d="M279.06,24.32c.07.06.21.05.45-.08,0,.12-.32.25-.45.38.37-.08.05.12.18.19.38-.16.49-.37.9-.51a.09.09,0,0,0,.09.09,7.38,7.38,0,0,1,1.74-.85,7,7,0,0,0,1.26-.62c1.66-.66,3.32-1.52,5.13-2.19l.16-.32c.13.07.42-.18.43,0a.9.9,0,0,0-.31.13c.46,0,1-.46,1.47-.59-.06,0-.22-.16-.09-.25.06.24.53-.24.78,0,.48-.14-.07-.21.41-.38,0-.16-.48.13-.61.06.1-.17.45-.14.37-.27a35.53,35.53,0,0,0-3.19,1.74l.07-.18a5,5,0,0,1-2.07.78c.16.07-.9.31-.69.55a1.23,1.23,0,0,0-.45.1v.11c-.31.13-.32,0-.66.14.28,0,0,.16,0,.31-.45,0-1,.13-1.37.17a.39.39,0,0,0,.24.06c-.26.06-.17.15-.21.22-.23.11-.28,0-.3-.14-.45.14-.51.52-.87.56l.17.07c-.43.23-.86.25-1.32.51-.31-.07.33-.32.5-.48-.11,0-.33.09-.42.06a8.58,8.58,0,0,1-.68.64C279.85,24,279.24,24.26,279.06,24.32Z"/><path class="cls-1" d="M280.37,23.64a.58.58,0,0,0,.11-.13.43.43,0,0,1-.15.09A0,0,0,0,0,280.37,23.64Z"/><path class="cls-1" d="M279.06,24.32v0C279,24.33,279,24.33,279.06,24.32Z"/><path class="cls-1" d="M282,23.53H282l-.08,0Z"/><path class="cls-1" d="M282.15,22.81a2.27,2.27,0,0,0,.43,0C282.52,22.75,282.46,22.72,282.15,22.81Z"/><path class="cls-1" d="M285.17,21.66c.08-.06,0-.08.06-.15C285,21.59,285,21.66,285.17,21.66Z"/><polygon class="cls-1" points="279.83 23.84 279.48 24.04 279.36 24.13 279.83 23.84"/><path class="cls-1" d="M272.65,27.74a4,4,0,0,0,1.24-.44c.7-.4-.05-.36.64-.68V27a7.4,7.4,0,0,0,2.18-1.21c.07,0,.21,0,0,.12.46-.21.05-.53.72-.7-.5.44.26.09.19.35l-.08.06c.38-.19.86-.52,1.12-.62,0-.08-.3-.1,0-.26-.15.05-.13-.07-.16-.15-.32.24-.54.28-.71.47-.24,0,.12-.09-.12-.1l-.25.22c-.22.07.17-.2-.17-.07a1,1,0,0,1-.51.35l0-.06c-.18.12-.48.2-.31.32l-.31-.06.1.09c-.57.2-.89,0-1.53.46.18,0,.06.09,0,.15.32,0,.32-.24.59-.38.09.1-.32.44.05.36-.43,0-.69.32-1,.11-.45.18-.55.39-1,.52v-.05c0,.23-.41.08-.66.42l.26-.07c0,.09-.09.14-.25.22,0,0,0,0-.06-.05,0,.16-.49.4-.54.47a3.55,3.55,0,0,0,.68-.44C272.78,27.58,272.87,27.67,272.65,27.74Z"/><path class="cls-1" d="M277,25.24l-.12.13A.29.29,0,0,0,277,25.24Z"/><path class="cls-1" d="M270.64,28.34c-.18,0,.06-.16-.05-.19s-.09.16-.06.2.11.1,0,.25c-.09,0-.28.11-.46.24a.2.2,0,0,1,0-.11c.09,0,.28-.35.32-.42s.05-.28.05-.37c-.12.38-.07-.25-.21.12-.11.05-.2-.45-.11-.64.09,0,.07.17.07.3.16.1.09-.32.23-.39-.22-.48-.2-2-.56-1.57-.07.16,0,.3,0,.48.08-.5.19,0,.26,0-.06.22.05.58-.08.5l-.13-.34c0,.35,0,.73,0,1.14s0,1,0,1.56l1.55-.72-.54.22c.07-.13.29-.23.45-.35l-.33-.11c.14-.05.27-.14.29-.06.13-.17,0-.19-.11-.21.35-.2.45-.15.67-.41a1,1,0,0,0-.58.24,1,1,0,0,1-.22.15c-.09.05-.26.11-.27.07A1.25,1.25,0,0,1,270.64,28.34Z"/><polygon class="cls-1" points="271.81 27.68 271.71 27.86 271.92 27.71 271.81 27.68"/><path class="cls-1" d="M271.79,28.26s0-.1,0-.15C271.51,28.21,271.58,28.26,271.79,28.26Z"/><path class="cls-1" d="M270.35,26.92l0-.4,0,.26C270.32,26.77,270.34,26.87,270.35,26.92Z"/><path class="cls-1" d="M269.74,24.11a4.48,4.48,0,0,1,0,1.42c.15.31.28-.14.42,0,0-.31-.22-.27-.27-.59.13-.13,0-.48,0-.79A.11.11,0,0,1,269.74,24.11Z"/><path class="cls-1" d="M270.25,22.2a3,3,0,0,1,0-.71c.08,0,.11.18.09.33.19-.1,0-.28.1-.56,0,0,0,.13-.1,0,.05-.68-.15-.38,0-1.27-.05-.13-.05-.26-.18-.23a5.32,5.32,0,0,0,.3-.86c-.08,0-.24.22-.4.22.22-.86,0-.88.13-1.42a.64.64,0,0,1,0,.28c.22-.07,0-.46,0-.76l.19,0a2.48,2.48,0,0,1,0-1.12l.09.08c-.14-.71-.08-1.55-.15-2.16l.12-.33c-.14-.84-.07.84-.35.22.35-.09-.11-.43,0-.91.14-.23.07.48.23.23-.18-.1-.05-.25-.1-.51.16.06,0-.53.21-.37l-.31-.9a1,1,0,0,0,.05-.6c0,.49-.25-.13-.32.41a19.62,19.62,0,0,1,.05,3.1c.22.11,0,.64.18.79-.07,0-.14.1-.21.13.05.63.13-.15.21,0s-.11.51-.19.48c0,.46.06.05.19.28l-.26.3a36.17,36.17,0,0,1,.11,4.93l.15-.12c-.08.73.35,1.23,0,1.88l.13.22c-.07-.12-.23.13-.34-.07.05.2,0,.42,0,.62l.08-.36a.52.52,0,0,1-.07.62c.16.55.27-.32.4-.45-.29-.77.29-.77.17-1.51C270.39,21.72,270.33,22.22,270.25,22.2Z"/><path class="cls-1" d="M269.82,23.15a.23.23,0,0,0,0,.11A.49.49,0,0,0,269.82,23.15Z"/><path class="cls-1" d="M270.14,10.93v-.21C270.09,10.64,270.12,10.76,270.14,10.93Z"/><polygon class="cls-1" points="269.91 24.14 269.91 24.14 269.91 24.14 269.91 24.14"/><polygon class="cls-1" points="270.29 24.51 270.3 24.31 270.23 24.34 270.29 24.51"/><path class="cls-1" d="M270.34,8.77h-.08A.06.06,0,0,0,270.34,8.77Z"/><path class="cls-1" d="M270.39,2.9V3A.28.28,0,0,0,270.39,2.9Z"/><path class="cls-1" d="M281.81,7.14A4.61,4.61,0,0,0,283,7.4l-.06.06c.21,0,.87.19.54-.12l-.13,0c-.49-.08-.27-.27-.59-.47s-.8,0-1.14-.2c-.17-.06-.11-.12,0-.16-.36-.18-.6,0-.87-.11.15-.62-1.21-.35-1.6-.95A9.09,9.09,0,0,0,277.78,5c.3,0-.41-.2-.24-.32-.27.28-1.21-.71-1.48-.32-.55-.38,0,0-.69-.39,0,0,.14,0,.19,0-.24-.21-.5,0-.64-.3-.55-.27-.15.07-.53,0-.55-.3-.37-.29-.61-.6-.14.18-.44-.07-.77-.09.06,0,.44.25.15.21-.66-.32-.6-.1-1.25-.32-.22-.36.63.27.15-.15a3.42,3.42,0,0,0,1,.15,10.85,10.85,0,0,0-1.82-.66c-.31-.17.21,0,0-.17a1.94,1.94,0,0,0-.7-.26A2.39,2.39,0,0,1,270,1.8a.44.44,0,0,1,0,.2l-.12-.28A16.26,16.26,0,0,1,270,3.6c.06-.07.1-.12.14,0-.31,0,.16.81-.06,1.39.2,0,.31.52.33.87-.05.13-.13.1-.19.1.12-.58-.21-.56-.3-1A11.41,11.41,0,0,0,270,6.25l-.16-.13c0,.53.35.46.2,1L270,7.08a15.13,15.13,0,0,0,.07,3.33c.09.08.31-.37.39-.4-.08-.53-.25-.84-.33-1.25h.18c-.13-.1-.2-.59-.3-.32-.09-.33.16-.25.06-.63.19,0,.21.26.36.26l-.09-.33c.07.11.06-.2.14-.1-.23-.61.09-.86,0-1.5l0,.36c-.1,0-.09-.21-.12-.36.14-.17.12-.28.19-.6-.09-.29-.27-.44-.27-.82.2.08.11-.64.27-.71-.19-.08-.07-.74-.18-.79,0-.2,0-.49.09-.45s0,.05,0,.12V2.77s0,0,0,0-.14-.14,0-.2.05.09.07.13a3.47,3.47,0,0,0-.14-.49s.14,0,.25.14c0-.11.36,0,.35-.19.11.13,0,.26.38.4.28-.07.39.24.72.26-.45,0,0,.05-.43.06.23.18.7.13,1.13.35,0,.06,0,.11,0,.17.19,0,.43,0,.53.17l0-.13a6.08,6.08,0,0,1,1,.61l.47-.06a2.16,2.16,0,0,0,1.67.52c.18.1.44.26.42.31h-.24c.27.12.55.39.78.28.31.07.15.21.35.34.68,0,1.59.92,1.93.6-.23-.1-.64-.37-1.09-.55.14,0,.08-.11.25,0a8.55,8.55,0,0,0,1.09.55l-.17.23C280.43,6.81,281.37,6.52,281.81,7.14Z"/><path class="cls-1" d="M276.14,4.65l.27.27V4.79A.53.53,0,0,1,276.14,4.65Z"/><path class="cls-1" d="M276.42,4.79l.21,0a.58.58,0,0,0-.21-.07Z"/><path class="cls-1" d="M283.11,7.66a1.17,1.17,0,0,0,.35.15A.64.64,0,0,0,283.11,7.66Z"/><polygon class="cls-1" points="283.52 7.75 283.37 7.64 283.34 7.66 283.52 7.75"/><path class="cls-1" d="M293,11.65l.59.07c0,.12.68.28.43.33.39,0,1,.43.85.06-1.56-.58-3.58-1.64-5.43-2.18l.32,0c-1-.19-1.15-.77-2.06-.68l.19-.17c-.39-.24-.93,0-1.27-.46v.1c-.12-.05-.14-.11-.26-.16l0,.06a1.67,1.67,0,0,1-.8-.33c0-.08.15,0,.25.06-.1-.13-.4-.09-.63-.2s0-.09.08-.11c-.74-.21-1-.57-1.6-.48-.07,0,.14.19-.13.1a3.37,3.37,0,0,0,1.3.45l-.11-.06c.46-.15.22.18.82.29-.2.06-.43,0-.55,0,.52.5,1,.21,1.24.69h0a1.32,1.32,0,0,0,.42.12c0-.06-.16-.14-.24-.21a.52.52,0,0,0,.36-.11c.1.21.24,0,.46.21,0,.16-.26,0-.38.05l.34,0c.28.12.22.26.33.39.27,0-.11-.13.14-.18a6.33,6.33,0,0,0,2.19.95c-.22-.08-.14.1-.38,0,.08.07.43.14.48.05a4,4,0,0,1,1.32.65l-.07-.14c.4,0,.78.48,1.4.64h0c.2.06.46-.1.78.1C293.23,11.62,293.05,11.53,293,11.65Z"/><path class="cls-1" d="M295.16,12.33l-.24.05c.19.12.53.06.52,0s-.31-.18-.37-.11S295.06,12.31,295.16,12.33Z"/><path class="cls-1" d="M299.08,14c.09,0,.09-.06.14-.08a13.24,13.24,0,0,1-2.16-1c-.26-.16-.4,0-.77-.09l-.1-.2c-.23,0-.74-.4-.63-.09,0,0,.21,0,.35.08l-.06.06.39.14-.16,0c.45.36.48-.13,1.07.24l-.09.18a3.85,3.85,0,0,1,1,.5s0-.09,0-.08-.13-.16-.05-.2c.69.13-.15.08.26.35a4.66,4.66,0,0,1,1.9.72c-.21-.22.22-.18.52,0,.11.13-.15.07-.22.11a1.19,1.19,0,0,0,.38.21c-.14-.18,0-.27.4-.19C300.51,14.25,299.79,14.36,299.08,14Z"/><path class="cls-1" d="M299.37,14a.2.2,0,0,0-.15,0l.29.12Z"/></g></g></svg>